<mxfile host="65bd71144e">
    <diagram id="VJWeUaAA5fhg7bQ674Pf" name="Page-1">
        <mxGraphModel dx="1465" dy="659" grid="1" gridSize="40" guides="1" tooltips="1" connect="1" arrows="1" fold="1" page="1" pageScale="1" pageWidth="1400" pageHeight="850" math="0" shadow="1">
            <root>
                <mxCell id="0"/>
                <mxCell id="1" parent="0"/>
                <mxCell id="13" value="" style="whiteSpace=wrap;strokeColor=#A50040;strokeWidth=4;perimeterSpacing=5;shadow=1;glass=1;html=1;labelBorderColor=none;labelBackgroundColor=none;align=center;fontSize=17;fontColor=#ffffff;fontStyle=1;fillColor=none;" parent="1" vertex="1">
                    <mxGeometry x="290" y="120" width="250" height="640" as="geometry"/>
                </mxCell>
                <mxCell id="38" value="" style="edgeStyle=none;endArrow=none;verticalAlign=bottom;strokeColor=#001DBC;strokeWidth=4;entryX=1;entryY=0.5;entryDx=0;entryDy=0;exitX=0;exitY=0.5;exitDx=0;exitDy=0;exitPerimeter=0;shadow=1;html=1;labelBorderColor=none;labelBackgroundColor=none;align=center;fontSize=17;fontColor=#0000FF;fontStyle=1;fillColor=#0050ef;" parent="1" source="32" target="34" edge="1">
                    <mxGeometry width="160" relative="1" as="geometry">
                        <mxPoint x="630" y="180" as="sourcePoint"/>
                        <mxPoint x="519.0500000000002" y="257.98" as="targetPoint"/>
                        <Array as="points">
                            <mxPoint x="720" y="460"/>
                            <mxPoint x="640" y="460"/>
                        </Array>
                    </mxGeometry>
                </mxCell>
                <mxCell id="56" value="" style="edgeStyle=none;endArrow=none;verticalAlign=bottom;strokeColor=#001DBC;strokeWidth=4;entryX=1;entryY=0.5;entryDx=0;entryDy=0;exitX=0;exitY=0.5;exitDx=0;exitDy=0;exitPerimeter=0;shadow=1;html=1;labelBorderColor=none;labelBackgroundColor=none;align=center;fontSize=17;fontColor=#0000FF;fontStyle=1;fillColor=#0050ef;" parent="1" source="32" target="51" edge="1">
                    <mxGeometry width="160" relative="1" as="geometry">
                        <mxPoint x="637.5" y="475" as="sourcePoint"/>
                        <mxPoint x="492.175144212722" y="274.74873734152925" as="targetPoint"/>
                        <Array as="points">
                            <mxPoint x="720" y="460"/>
                            <mxPoint x="640" y="460"/>
                        </Array>
                    </mxGeometry>
                </mxCell>
                <mxCell id="61" value="" style="edgeStyle=none;endArrow=none;verticalAlign=bottom;strokeColor=#006EAF;strokeWidth=4;exitX=0;exitY=0.5;exitDx=0;exitDy=0;exitPerimeter=0;shadow=1;html=1;labelBorderColor=none;labelBackgroundColor=none;align=center;fontSize=17;fontColor=#0000FF;fontStyle=1;fillColor=#1ba1e2;" parent="1" source="30" edge="1">
                    <mxGeometry width="160" relative="1" as="geometry">
                        <mxPoint x="637.5" y="500" as="sourcePoint"/>
                        <mxPoint x="499" y="345" as="targetPoint"/>
                        <Array as="points">
                            <mxPoint x="760" y="368"/>
                            <mxPoint x="640" y="368"/>
                        </Array>
                    </mxGeometry>
                </mxCell>
                <mxCell id="75" value="" style="edgeStyle=none;endArrow=none;verticalAlign=bottom;strokeColor=#006EAF;strokeWidth=4;shadow=1;html=1;labelBorderColor=none;labelBackgroundColor=none;align=center;fontSize=17;fontColor=#0000FF;fontStyle=1;fillColor=#1ba1e2;entryX=0;entryY=0.5;entryDx=0;entryDy=0;" parent="1" target="103" edge="1">
                    <mxGeometry width="160" relative="1" as="geometry">
                        <mxPoint x="500" y="537.5" as="sourcePoint"/>
                        <mxPoint x="680" y="556" as="targetPoint"/>
                        <Array as="points"/>
                    </mxGeometry>
                </mxCell>
                <mxCell id="29" value="" style="edgeStyle=none;endArrow=none;verticalAlign=bottom;strokeColor=#A50040;strokeWidth=4;entryX=1;entryY=0.5;entryDx=0;entryDy=0;exitX=0.001;exitY=0.577;exitDx=0;exitDy=0;exitPerimeter=0;shadow=1;html=1;labelBorderColor=none;labelBackgroundColor=none;align=center;fontSize=17;fontColor=#0000FF;fontStyle=1;fillColor=#d80073;" parent="1" source="27" target="10" edge="1">
                    <mxGeometry width="160" relative="1" as="geometry">
                        <mxPoint x="720" y="280" as="sourcePoint"/>
                        <mxPoint x="520" y="192.5" as="targetPoint"/>
                        <Array as="points">
                            <mxPoint x="640" y="279"/>
                        </Array>
                    </mxGeometry>
                </mxCell>
                <mxCell id="96" value="" style="edgeStyle=none;endArrow=none;verticalAlign=bottom;strokeColor=#A50040;strokeWidth=4;entryX=1;entryY=0.5;entryDx=0;entryDy=0;exitX=-0.008;exitY=0.593;exitDx=0;exitDy=0;exitPerimeter=0;shadow=1;html=1;labelBorderColor=none;labelBackgroundColor=none;align=center;fontSize=17;fontColor=#0000FF;fontStyle=1;fillColor=#d80073;" parent="1" source="27" target="53" edge="1">
                    <mxGeometry width="160" relative="1" as="geometry">
                        <mxPoint x="720" y="280" as="sourcePoint"/>
                        <mxPoint x="520" y="550" as="targetPoint"/>
                        <Array as="points">
                            <mxPoint x="640" y="280"/>
                        </Array>
                    </mxGeometry>
                </mxCell>
                <mxCell id="88" value="" style="edgeStyle=none;endArrow=none;verticalAlign=bottom;strokeColor=#A50040;strokeWidth=4;entryX=0;entryY=0.5;entryDx=0;entryDy=0;exitX=1;exitY=0.5;exitDx=0;exitDy=0;shadow=1;html=1;labelBorderColor=none;labelBackgroundColor=none;align=center;fontSize=17;fontColor=#0000FF;fontStyle=1;fillColor=#d80073;" parent="1" source="83" target="43" edge="1">
                    <mxGeometry width="160" relative="1" as="geometry">
                        <mxPoint x="510" y="607.5" as="sourcePoint"/>
                        <mxPoint x="720" y="765" as="targetPoint"/>
                        <Array as="points">
                            <mxPoint x="640" y="625"/>
                        </Array>
                    </mxGeometry>
                </mxCell>
                <mxCell id="72" value="" style="edgeStyle=none;endArrow=none;verticalAlign=bottom;strokeColor=#B20000;strokeWidth=4;entryX=0;entryY=0.5;entryDx=0;entryDy=0;exitX=1;exitY=0.5;exitDx=0;exitDy=0;shadow=1;html=1;labelBorderColor=none;labelBackgroundColor=none;align=center;fontSize=17;fontColor=#0000FF;fontStyle=1;fillColor=#e51400;" parent="1" source="69" target="39" edge="1">
                    <mxGeometry width="160" relative="1" as="geometry">
                        <mxPoint x="500" y="460" as="sourcePoint"/>
                        <mxPoint x="836.9899999999998" y="492.99" as="targetPoint"/>
                        <Array as="points">
                            <mxPoint x="640" y="685"/>
                        </Array>
                    </mxGeometry>
                </mxCell>
                <mxCell id="26" value="" style="edgeStyle=none;endArrow=none;verticalAlign=bottom;strokeColor=#B20000;strokeWidth=4;entryX=1;entryY=0.5;entryDx=0;entryDy=0;exitX=0;exitY=0.5;exitDx=0;exitDy=0;shadow=1;html=1;labelBorderColor=none;labelBackgroundColor=none;align=center;fontSize=17;fontColor=#0000FF;fontStyle=1;fillColor=#e51400;" parent="1" source="22" target="10" edge="1">
                    <mxGeometry width="160" relative="1" as="geometry">
                        <mxPoint x="630" y="180" as="sourcePoint"/>
                        <mxPoint x="511.07000000000016" y="166.04999999999995" as="targetPoint"/>
                        <Array as="points">
                            <mxPoint x="640" y="195"/>
                        </Array>
                    </mxGeometry>
                </mxCell>
                <mxCell id="63" value="" style="edgeStyle=none;endArrow=none;verticalAlign=bottom;strokeColor=#B20000;strokeWidth=4;exitX=0;exitY=0.5;exitDx=0;exitDy=0;entryX=1;entryY=0.5;entryDx=0;entryDy=0;shadow=1;html=1;labelBorderColor=none;labelBackgroundColor=none;align=center;fontSize=17;fontColor=#0000FF;fontStyle=1;fillColor=#e51400;" parent="1" source="22" target="58" edge="1">
                    <mxGeometry width="160" relative="1" as="geometry">
                        <mxPoint x="630" y="175" as="sourcePoint"/>
                        <mxPoint x="513" y="390" as="targetPoint"/>
                        <Array as="points">
                            <mxPoint x="640" y="195"/>
                        </Array>
                    </mxGeometry>
                </mxCell>
                <mxCell id="79" value="" style="edgeStyle=none;endArrow=none;verticalAlign=bottom;strokeColor=#B20000;strokeWidth=4;exitX=0;exitY=0.5;exitDx=0;exitDy=0;entryX=1;entryY=0.5;entryDx=0;entryDy=0;shadow=1;html=1;labelBorderColor=none;labelBackgroundColor=none;align=center;fontSize=17;fontColor=#0000FF;fontStyle=1;fillColor=#e51400;" parent="1" source="22" target="69" edge="1">
                    <mxGeometry width="160" relative="1" as="geometry">
                        <mxPoint x="720" y="155" as="sourcePoint"/>
                        <mxPoint x="510" y="472.5" as="targetPoint"/>
                        <Array as="points">
                            <mxPoint x="640" y="195"/>
                        </Array>
                    </mxGeometry>
                </mxCell>
                <mxCell id="80" value="" style="edgeStyle=none;endArrow=none;verticalAlign=bottom;strokeColor=#B20000;strokeWidth=4;entryX=1;entryY=0.5;entryDx=0;entryDy=0;exitX=0;exitY=0.5;exitDx=0;exitDy=0;shadow=1;html=1;labelBorderColor=none;labelBackgroundColor=none;align=center;fontSize=17;fontColor=#0000FF;fontStyle=1;fillColor=#e51400;" parent="1" source="22" target="73" edge="1">
                    <mxGeometry width="160" relative="1" as="geometry">
                        <mxPoint x="720" y="155" as="sourcePoint"/>
                        <mxPoint x="510" y="540" as="targetPoint"/>
                        <Array as="points">
                            <mxPoint x="640" y="195"/>
                        </Array>
                    </mxGeometry>
                </mxCell>
                <mxCell id="95" value="" style="edgeStyle=none;endArrow=none;verticalAlign=bottom;strokeColor=#B20000;strokeWidth=4;entryX=1;entryY=0.5;entryDx=0;entryDy=0;exitX=0;exitY=0.5;exitDx=0;exitDy=0;shadow=1;html=1;labelBorderColor=none;labelBackgroundColor=none;align=center;fontSize=17;fontColor=#0000FF;fontStyle=1;fillColor=#e51400;" parent="1" source="22" target="53" edge="1">
                    <mxGeometry width="160" relative="1" as="geometry">
                        <mxPoint x="720" y="215" as="sourcePoint"/>
                        <mxPoint x="510" y="540" as="targetPoint"/>
                        <Array as="points">
                            <mxPoint x="640" y="195"/>
                        </Array>
                    </mxGeometry>
                </mxCell>
                <mxCell id="94" value="" style="edgeStyle=none;endArrow=none;verticalAlign=bottom;strokeColor=#6F0000;strokeWidth=4;exitX=1;exitY=0.5;exitDx=0;exitDy=0;entryX=0.003;entryY=0.59;entryDx=0;entryDy=0;entryPerimeter=0;shadow=1;html=1;labelBorderColor=none;labelBackgroundColor=none;align=center;fontSize=17;fontColor=#0000FF;fontStyle=1;fillColor=#a20025;" parent="1" source="53" target="19" edge="1">
                    <mxGeometry width="160" relative="1" as="geometry">
                        <mxPoint x="510" y="667.5" as="sourcePoint"/>
                        <mxPoint x="710" y="150" as="targetPoint"/>
                        <Array as="points">
                            <mxPoint x="640" y="140"/>
                        </Array>
                    </mxGeometry>
                </mxCell>
                <mxCell id="76" value="" style="edgeStyle=none;endArrow=none;verticalAlign=bottom;strokeColor=#6F0000;strokeWidth=4;entryX=1;entryY=0.5;entryDx=0;entryDy=0;exitX=0;exitY=0.5;exitDx=0;exitDy=0;shadow=1;html=1;labelBorderColor=none;labelBackgroundColor=none;align=center;fontSize=17;fontColor=#0000FF;fontStyle=1;fillColor=#a20025;" parent="1" source="19" target="69" edge="1">
                    <mxGeometry width="160" relative="1" as="geometry">
                        <mxPoint x="710" y="140" as="sourcePoint"/>
                        <mxPoint x="498.44000000000005" y="396" as="targetPoint"/>
                        <Array as="points">
                            <mxPoint x="640" y="135"/>
                        </Array>
                    </mxGeometry>
                </mxCell>
                <mxCell id="77" value="" style="edgeStyle=none;endArrow=none;verticalAlign=bottom;strokeColor=#6F0000;strokeWidth=4;entryX=1;entryY=0.5;entryDx=0;entryDy=0;exitX=0;exitY=0.5;exitDx=0;exitDy=0;shadow=1;html=1;labelBorderColor=none;labelBackgroundColor=none;align=center;fontSize=17;fontColor=#0000FF;fontStyle=1;fillColor=#a20025;" parent="1" source="19" target="73" edge="1">
                    <mxGeometry width="160" relative="1" as="geometry">
                        <mxPoint x="710" y="145" as="sourcePoint"/>
                        <mxPoint x="508.44000000000005" y="406" as="targetPoint"/>
                        <Array as="points">
                            <mxPoint x="640" y="135"/>
                        </Array>
                    </mxGeometry>
                </mxCell>
                <mxCell id="92" value="" style="edgeStyle=none;endArrow=none;verticalAlign=bottom;strokeColor=#6F0000;strokeWidth=4;exitX=1;exitY=0.5;exitDx=0;exitDy=0;entryX=0;entryY=0.5;entryDx=0;entryDy=0;shadow=1;html=1;labelBorderColor=none;labelBackgroundColor=none;align=center;fontSize=17;fontColor=#0000FF;fontStyle=1;fillColor=#a20025;" parent="1" source="81" target="19" edge="1">
                    <mxGeometry width="160" relative="1" as="geometry">
                        <mxPoint x="510" y="667.5" as="sourcePoint"/>
                        <mxPoint x="710" y="140" as="targetPoint"/>
                        <Array as="points">
                            <mxPoint x="640" y="135"/>
                        </Array>
                    </mxGeometry>
                </mxCell>
                <mxCell id="93" value="" style="edgeStyle=none;endArrow=none;verticalAlign=bottom;strokeColor=#6F0000;strokeWidth=4;exitX=1;exitY=0.5;exitDx=0;exitDy=0;entryX=0;entryY=0.5;entryDx=0;entryDy=0;shadow=1;html=1;labelBorderColor=none;labelBackgroundColor=none;align=center;fontSize=17;fontColor=#0000FF;fontStyle=1;fillColor=#a20025;" parent="1" source="83" target="19" edge="1">
                    <mxGeometry width="160" relative="1" as="geometry">
                        <mxPoint x="510" y="667.5" as="sourcePoint"/>
                        <mxPoint x="710" y="140" as="targetPoint"/>
                        <Array as="points">
                            <mxPoint x="640" y="135"/>
                        </Array>
                    </mxGeometry>
                </mxCell>
                <mxCell id="97" value="" style="edgeStyle=none;endArrow=none;verticalAlign=bottom;strokeColor=#6F0000;strokeWidth=4;exitX=1;exitY=0.5;exitDx=0;exitDy=0;entryX=0.003;entryY=0.59;entryDx=0;entryDy=0;entryPerimeter=0;shadow=1;html=1;labelBorderColor=none;labelBackgroundColor=none;align=center;fontSize=17;fontColor=#0000FF;fontStyle=1;fillColor=#a20025;" edge="1" parent="1">
                    <mxGeometry width="160" relative="1" as="geometry">
                        <mxPoint x="500.0000000000009" y="716.75" as="sourcePoint"/>
                        <mxPoint x="720.3599999999999" y="138.75" as="targetPoint"/>
                        <Array as="points">
                            <mxPoint x="640" y="139.25"/>
                        </Array>
                    </mxGeometry>
                </mxCell>
                <mxCell id="98" value="" style="edgeStyle=none;endArrow=none;verticalAlign=bottom;strokeColor=#6F0000;strokeWidth=4;entryX=1;entryY=0.5;entryDx=0;entryDy=0;exitX=0;exitY=0.5;exitDx=0;exitDy=0;shadow=1;html=1;labelBorderColor=none;labelBackgroundColor=none;align=center;fontSize=17;fontColor=#0000FF;fontStyle=1;fillColor=#a20025;" edge="1" parent="1">
                    <mxGeometry width="160" relative="1" as="geometry">
                        <mxPoint x="720" y="134.25" as="sourcePoint"/>
                        <mxPoint x="499.99999999999864" y="159.25" as="targetPoint"/>
                        <Array as="points">
                            <mxPoint x="640" y="134.25"/>
                        </Array>
                    </mxGeometry>
                </mxCell>
                <mxCell id="99" value="" style="edgeStyle=none;endArrow=none;verticalAlign=bottom;strokeColor=#6F0000;strokeWidth=4;entryX=1;entryY=0.5;entryDx=0;entryDy=0;exitX=0.001;exitY=0.594;exitDx=0;exitDy=0;exitPerimeter=0;shadow=1;html=1;labelBorderColor=none;labelBackgroundColor=none;align=center;fontSize=17;fontColor=#0000FF;fontStyle=1;fillColor=#a20025;" edge="1" parent="1">
                    <mxGeometry width="160" relative="1" as="geometry">
                        <mxPoint x="720.1200000000001" y="138.94999999999993" as="sourcePoint"/>
                        <mxPoint x="500.0000000000009" y="224.25" as="targetPoint"/>
                        <Array as="points">
                            <mxPoint x="640" y="139.25"/>
                        </Array>
                    </mxGeometry>
                </mxCell>
                <mxCell id="100" value="" style="edgeStyle=none;endArrow=none;verticalAlign=bottom;strokeColor=#6F0000;strokeWidth=4;entryX=1;entryY=0.5;entryDx=0;entryDy=0;exitX=0;exitY=0.5;exitDx=0;exitDy=0;shadow=1;html=1;labelBorderColor=none;labelBackgroundColor=none;align=center;fontSize=17;fontColor=#0000FF;fontStyle=1;fillColor=#a20025;" edge="1" parent="1">
                    <mxGeometry width="160" relative="1" as="geometry">
                        <mxPoint x="720" y="134.25" as="sourcePoint"/>
                        <mxPoint x="500.0000000000016" y="284.25" as="targetPoint"/>
                        <Array as="points">
                            <mxPoint x="640" y="134.25"/>
                        </Array>
                    </mxGeometry>
                </mxCell>
                <mxCell id="101" value="" style="edgeStyle=none;endArrow=none;verticalAlign=bottom;strokeColor=#6F0000;strokeWidth=4;entryX=1;entryY=0.5;entryDx=0;entryDy=0;exitX=0;exitY=0.5;exitDx=0;exitDy=0;shadow=1;html=1;labelBorderColor=none;labelBackgroundColor=none;align=center;fontSize=17;fontColor=#0000FF;fontStyle=1;fillColor=#a20025;" edge="1" parent="1">
                    <mxGeometry width="160" relative="1" as="geometry">
                        <mxPoint x="720" y="134.25" as="sourcePoint"/>
                        <mxPoint x="500.0000000000016" y="344.25" as="targetPoint"/>
                        <Array as="points">
                            <mxPoint x="640" y="134.25"/>
                        </Array>
                    </mxGeometry>
                </mxCell>
                <mxCell id="102" value="" style="edgeStyle=none;endArrow=none;verticalAlign=bottom;strokeColor=#6F0000;strokeWidth=4;entryX=1;entryY=0.5;entryDx=0;entryDy=0;exitX=0;exitY=0.5;exitDx=0;exitDy=0;shadow=1;html=1;labelBorderColor=none;labelBackgroundColor=none;align=center;fontSize=17;fontColor=#0000FF;fontStyle=1;fillColor=#a20025;" edge="1" parent="1">
                    <mxGeometry width="160" relative="1" as="geometry">
                        <mxPoint x="720" y="134.25" as="sourcePoint"/>
                        <mxPoint x="500.0000000000009" y="401.75" as="targetPoint"/>
                        <Array as="points">
                            <mxPoint x="640" y="134.25"/>
                        </Array>
                    </mxGeometry>
                </mxCell>
                <mxCell id="87" value="" style="edgeStyle=none;endArrow=none;verticalAlign=bottom;strokeColor=#6F0000;strokeWidth=4;entryX=0;entryY=0.5;entryDx=0;entryDy=0;exitX=1;exitY=0.5;exitDx=0;exitDy=0;shadow=1;html=1;labelBorderColor=none;labelBackgroundColor=none;align=center;fontSize=17;fontColor=#0000FF;fontStyle=1;fillColor=#a20025;" parent="1" source="81" target="85" edge="1">
                    <mxGeometry width="160" relative="1" as="geometry">
                        <mxPoint x="510" y="540" as="sourcePoint"/>
                        <mxPoint x="727.5" y="570" as="targetPoint"/>
                        <Array as="points">
                            <mxPoint x="640" y="745"/>
                        </Array>
                    </mxGeometry>
                </mxCell>
                <mxCell id="6" value="" style="edgeStyle=none;endArrow=none;verticalAlign=bottom;strokeColor=#FF6392;strokeWidth=4;entryX=0;entryY=0.5;entryDx=0;entryDy=0;exitX=0.99;exitY=0.667;exitDx=0;exitDy=0;exitPerimeter=0;shadow=1;html=1;labelBorderColor=none;labelBackgroundColor=none;align=center;fontColor=#0000FF;" parent="1" source="16" target="10" edge="1">
                    <mxGeometry width="160" relative="1" as="geometry">
                        <mxPoint x="150" y="270" as="sourcePoint"/>
                        <mxPoint x="310" y="270" as="targetPoint"/>
                        <Array as="points">
                            <mxPoint x="240" y="160"/>
                        </Array>
                    </mxGeometry>
                </mxCell>
                <mxCell id="24" value="" style="edgeStyle=none;endArrow=none;verticalAlign=bottom;strokeColor=#6F0000;strokeWidth=4;entryX=1;entryY=0.5;entryDx=0;entryDy=0;exitX=0;exitY=0.5;exitDx=0;exitDy=0;shadow=1;html=1;labelBorderColor=none;labelBackgroundColor=none;align=center;fontSize=17;fontColor=#0000FF;fontStyle=1;fillColor=#a20025;" parent="1" source="19" target="10" edge="1">
                    <mxGeometry width="160" relative="1" as="geometry">
                        <mxPoint x="710" y="140" as="sourcePoint"/>
                        <mxPoint x="330" y="192.5" as="targetPoint"/>
                        <Array as="points">
                            <mxPoint x="640" y="135"/>
                        </Array>
                    </mxGeometry>
                </mxCell>
                <mxCell id="36" value="" style="edgeStyle=none;endArrow=none;verticalAlign=bottom;strokeColor=#FF6392;strokeWidth=4;entryX=0;entryY=0.5;entryDx=0;entryDy=0;exitX=0.99;exitY=0.667;exitDx=0;exitDy=0;exitPerimeter=0;shadow=1;html=1;labelBorderColor=none;labelBackgroundColor=none;align=center;fontColor=#0000FF;" parent="1" source="16" target="34" edge="1">
                    <mxGeometry width="160" relative="1" as="geometry">
                        <mxPoint x="135" y="223" as="sourcePoint"/>
                        <mxPoint x="330" y="172.5" as="targetPoint"/>
                        <Array as="points">
                            <mxPoint x="240" y="225"/>
                        </Array>
                    </mxGeometry>
                </mxCell>
                <mxCell id="37" value="" style="edgeStyle=none;endArrow=none;verticalAlign=bottom;strokeColor=#6F0000;strokeWidth=4;entryX=1;entryY=0.5;entryDx=0;entryDy=0;exitX=0.001;exitY=0.594;exitDx=0;exitDy=0;exitPerimeter=0;shadow=1;html=1;labelBorderColor=none;labelBackgroundColor=none;align=center;fontSize=17;fontColor=#0000FF;fontStyle=1;fillColor=#a20025;" parent="1" source="19" target="34" edge="1">
                    <mxGeometry width="160" relative="1" as="geometry">
                        <mxPoint x="710" y="145" as="sourcePoint"/>
                        <mxPoint x="490" y="220" as="targetPoint"/>
                        <Array as="points">
                            <mxPoint x="640" y="140"/>
                        </Array>
                    </mxGeometry>
                </mxCell>
                <mxCell id="47" value="" style="edgeStyle=none;endArrow=none;verticalAlign=bottom;strokeColor=#FF6392;strokeWidth=4;entryX=0.1;entryY=0.497;entryDx=0;entryDy=0;entryPerimeter=0;shadow=1;html=1;labelBorderColor=none;labelBackgroundColor=none;align=center;fontSize=17;fontColor=#0000FF;fontStyle=1;exitX=1;exitY=0.5;exitDx=0;exitDy=0;exitPerimeter=0;" parent="1" target="45" edge="1" source="27">
                    <mxGeometry width="160" relative="1" as="geometry">
                        <mxPoint x="933" y="290" as="sourcePoint"/>
                        <mxPoint x="692.175144212722" y="274.74873734152925" as="targetPoint"/>
                        <Array as="points">
                            <mxPoint x="880" y="273"/>
                        </Array>
                    </mxGeometry>
                </mxCell>
                <mxCell id="48" value="" style="edgeStyle=none;endArrow=none;verticalAlign=bottom;strokeColor=#FF6392;strokeWidth=4;entryX=0.081;entryY=0.492;entryDx=0;entryDy=0;entryPerimeter=0;shadow=1;html=1;labelBorderColor=none;labelBackgroundColor=none;align=center;fontSize=17;fontColor=#0000FF;fontStyle=1;exitX=1;exitY=0.5;exitDx=0;exitDy=0;exitPerimeter=0;" parent="1" target="45" edge="1" source="30">
                    <mxGeometry width="160" relative="1" as="geometry">
                        <mxPoint x="933" y="380" as="sourcePoint"/>
                        <mxPoint x="1033" y="362.01" as="targetPoint"/>
                        <Array as="points">
                            <mxPoint x="880" y="368"/>
                        </Array>
                    </mxGeometry>
                </mxCell>
                <mxCell id="49" value="" style="edgeStyle=none;endArrow=none;verticalAlign=bottom;strokeColor=#FF6392;strokeWidth=4;exitX=1;exitY=0.5;exitDx=0;exitDy=0;exitPerimeter=0;entryX=0.075;entryY=0.479;entryDx=0;entryDy=0;entryPerimeter=0;shadow=1;html=1;labelBorderColor=none;labelBackgroundColor=none;align=center;fontSize=17;fontColor=#0000FF;fontStyle=1" parent="1" source="32" target="45" edge="1">
                    <mxGeometry width="160" relative="1" as="geometry">
                        <mxPoint x="952.5" y="308.75" as="sourcePoint"/>
                        <mxPoint x="1043" y="372.01" as="targetPoint"/>
                        <Array as="points">
                            <mxPoint x="880" y="460"/>
                        </Array>
                    </mxGeometry>
                </mxCell>
                <mxCell id="50" value="" style="edgeStyle=none;endArrow=none;verticalAlign=bottom;strokeColor=#FF6392;strokeWidth=4;exitX=1;exitY=0.5;exitDx=0;exitDy=0;exitPerimeter=0;shadow=1;html=1;labelBorderColor=none;labelBackgroundColor=none;align=center;fontSize=17;fontColor=#0000FF;fontStyle=1;entryX=0.075;entryY=0.496;entryDx=0;entryDy=0;entryPerimeter=0;" parent="1" source="41" edge="1" target="45">
                    <mxGeometry width="160" relative="1" as="geometry">
                        <mxPoint x="962.5" y="318.75" as="sourcePoint"/>
                        <mxPoint x="960" y="440" as="targetPoint"/>
                        <Array as="points"/>
                    </mxGeometry>
                </mxCell>
                <mxCell id="55" value="" style="edgeStyle=none;endArrow=none;verticalAlign=bottom;strokeColor=#FF6392;strokeWidth=4;entryX=0;entryY=0.5;entryDx=0;entryDy=0;exitX=0.988;exitY=0.683;exitDx=0;exitDy=0;exitPerimeter=0;shadow=1;html=1;labelBorderColor=none;labelBackgroundColor=none;align=center;fontColor=#0000FF;" parent="1" source="16" target="51" edge="1">
                    <mxGeometry width="160" relative="1" as="geometry">
                        <mxPoint x="130" y="410" as="sourcePoint"/>
                        <mxPoint x="338.92999999999984" y="236.98000000000002" as="targetPoint"/>
                        <Array as="points">
                            <mxPoint x="240" y="285"/>
                        </Array>
                    </mxGeometry>
                </mxCell>
                <mxCell id="57" value="" style="edgeStyle=none;endArrow=none;verticalAlign=bottom;strokeColor=#6F0000;strokeWidth=4;entryX=1;entryY=0.5;entryDx=0;entryDy=0;exitX=0;exitY=0.5;exitDx=0;exitDy=0;shadow=1;html=1;labelBorderColor=none;labelBackgroundColor=none;align=center;fontSize=17;fontColor=#0000FF;fontStyle=1;fillColor=#a20025;" parent="1" source="19" target="51" edge="1">
                    <mxGeometry width="160" relative="1" as="geometry">
                        <mxPoint x="710" y="143" as="sourcePoint"/>
                        <mxPoint x="502.175144212722" y="284.74873734152925" as="targetPoint"/>
                        <Array as="points">
                            <mxPoint x="640" y="135"/>
                        </Array>
                    </mxGeometry>
                </mxCell>
                <mxCell id="60" value="" style="edgeStyle=none;endArrow=none;verticalAlign=bottom;strokeColor=#FF6392;strokeWidth=4;entryX=0;entryY=0.5;entryDx=0;entryDy=0;exitX=0.979;exitY=0.668;exitDx=0;exitDy=0;exitPerimeter=0;shadow=1;html=1;labelBorderColor=none;labelBackgroundColor=none;align=center;fontColor=#0000FF;" parent="1" source="16" target="58" edge="1">
                    <mxGeometry width="160" relative="1" as="geometry">
                        <mxPoint x="130" y="410" as="sourcePoint"/>
                        <mxPoint x="330" y="327.5" as="targetPoint"/>
                        <Array as="points">
                            <mxPoint x="240" y="345"/>
                        </Array>
                    </mxGeometry>
                </mxCell>
                <mxCell id="62" value="" style="edgeStyle=none;endArrow=none;verticalAlign=bottom;strokeColor=#6F0000;strokeWidth=4;entryX=1;entryY=0.5;entryDx=0;entryDy=0;exitX=0;exitY=0.5;exitDx=0;exitDy=0;shadow=1;html=1;labelBorderColor=none;labelBackgroundColor=none;align=center;fontSize=17;fontColor=#0000FF;fontStyle=1;fillColor=#a20025;" parent="1" source="19" target="58" edge="1">
                    <mxGeometry width="160" relative="1" as="geometry">
                        <mxPoint x="710" y="140" as="sourcePoint"/>
                        <mxPoint x="519.0500000000002" y="415.9749999999999" as="targetPoint"/>
                        <Array as="points">
                            <mxPoint x="640" y="135"/>
                        </Array>
                    </mxGeometry>
                </mxCell>
                <mxCell id="66" value="" style="edgeStyle=none;endArrow=none;verticalAlign=bottom;strokeColor=#6F0000;strokeWidth=4;entryX=1;entryY=0.5;entryDx=0;entryDy=0;exitX=0;exitY=0.5;exitDx=0;exitDy=0;shadow=1;html=1;labelBorderColor=none;labelBackgroundColor=none;align=center;fontSize=17;fontColor=#0000FF;fontStyle=1;fillColor=#a20025;" parent="1" source="19" target="64" edge="1">
                    <mxGeometry width="160" relative="1" as="geometry">
                        <mxPoint x="710" y="145" as="sourcePoint"/>
                        <mxPoint x="519.0500000000002" y="415.9749999999999" as="targetPoint"/>
                        <Array as="points">
                            <mxPoint x="640" y="135"/>
                        </Array>
                    </mxGeometry>
                </mxCell>
                <mxCell id="68" value="" style="edgeStyle=none;endArrow=none;verticalAlign=bottom;strokeColor=#FF6392;strokeWidth=4;entryX=0;entryY=0.5;entryDx=0;entryDy=0;exitX=0.99;exitY=0.667;exitDx=0;exitDy=0;exitPerimeter=0;shadow=1;html=1;labelBorderColor=none;labelBackgroundColor=none;align=center;fontColor=#0000FF;" parent="1" source="16" target="64" edge="1">
                    <mxGeometry width="160" relative="1" as="geometry">
                        <mxPoint x="130" y="403" as="sourcePoint"/>
                        <mxPoint x="335.38532287044154" y="395.05351706533907" as="targetPoint"/>
                        <Array as="points">
                            <mxPoint x="240" y="403"/>
                        </Array>
                    </mxGeometry>
                </mxCell>
                <mxCell id="71" value="" style="edgeStyle=none;endArrow=none;verticalAlign=bottom;strokeColor=#FF6392;strokeWidth=4;entryX=0;entryY=0.5;entryDx=0;entryDy=0;exitX=0.984;exitY=0.674;exitDx=0;exitDy=0;exitPerimeter=0;shadow=1;html=1;labelBorderColor=none;labelBackgroundColor=none;align=center;fontColor=#0000FF;" parent="1" source="16" target="69" edge="1">
                    <mxGeometry width="160" relative="1" as="geometry">
                        <mxPoint x="130" y="410" as="sourcePoint"/>
                        <mxPoint x="330" y="487.5" as="targetPoint"/>
                        <Array as="points">
                            <mxPoint x="240" y="463"/>
                        </Array>
                    </mxGeometry>
                </mxCell>
                <mxCell id="78" value="" style="edgeStyle=none;endArrow=none;verticalAlign=bottom;strokeColor=#FF6392;strokeWidth=4;entryX=0;entryY=0.5;entryDx=0;entryDy=0;shadow=1;html=1;labelBorderColor=none;labelBackgroundColor=none;align=center;fontColor=#0000FF;" parent="1" target="73" edge="1">
                    <mxGeometry width="160" relative="1" as="geometry">
                        <mxPoint x="150" y="440" as="sourcePoint"/>
                        <mxPoint x="340" y="472.5" as="targetPoint"/>
                        <Array as="points">
                            <mxPoint x="240" y="530"/>
                        </Array>
                    </mxGeometry>
                </mxCell>
                <mxCell id="89" value="" style="edgeStyle=none;endArrow=none;verticalAlign=bottom;strokeColor=#FF6392;strokeWidth=4;entryX=0;entryY=0.5;entryDx=0;entryDy=0;shadow=1;html=1;labelBorderColor=none;labelBackgroundColor=none;align=center;fontColor=#0000FF;" parent="1" target="81" edge="1">
                    <mxGeometry width="160" relative="1" as="geometry">
                        <mxPoint x="150" y="440" as="sourcePoint"/>
                        <mxPoint x="340" y="540" as="targetPoint"/>
                        <Array as="points">
                            <mxPoint x="240" y="598"/>
                        </Array>
                    </mxGeometry>
                </mxCell>
                <mxCell id="90" value="" style="edgeStyle=none;endArrow=none;verticalAlign=bottom;strokeColor=#FF6392;strokeWidth=4;entryX=0;entryY=0.5;entryDx=0;entryDy=0;shadow=1;html=1;labelBorderColor=none;labelBackgroundColor=none;align=center;fontColor=#0000FF;" parent="1" target="83" edge="1">
                    <mxGeometry width="160" relative="1" as="geometry">
                        <mxPoint x="147" y="440" as="sourcePoint"/>
                        <mxPoint x="340" y="607.5" as="targetPoint"/>
                        <Array as="points">
                            <mxPoint x="240" y="658"/>
                        </Array>
                    </mxGeometry>
                </mxCell>
                <mxCell id="69" value="&lt;span&gt;Pays With Cash&lt;/span&gt;" style="ellipse;whiteSpace=wrap;fillColor=#FFE45E;shadow=1;strokeColor=#FF6392;strokeWidth=4;html=1;labelBorderColor=none;labelBackgroundColor=none;align=center;fontSize=17;fontColor=#0000FF;fontStyle=1" parent="1" vertex="1">
                    <mxGeometry x="330" y="435" width="170" height="55" as="geometry"/>
                </mxCell>
                <mxCell id="73" value="&lt;span&gt;Pays With CreditCard&lt;/span&gt;" style="ellipse;whiteSpace=wrap;fillColor=#FFE45E;shadow=1;strokeColor=#FF6392;strokeWidth=4;html=1;labelBorderColor=none;labelBackgroundColor=none;align=center;fontSize=17;fontColor=#0000FF;fontStyle=1" parent="1" vertex="1">
                    <mxGeometry x="330" y="500" width="170" height="60" as="geometry"/>
                </mxCell>
                <mxCell id="81" value="&lt;span&gt;Selcets Paper Recipt&lt;/span&gt;" style="ellipse;whiteSpace=wrap;fillColor=#FFE45E;shadow=1;strokeColor=#FF6392;strokeWidth=4;html=1;labelBorderColor=none;labelBackgroundColor=none;align=center;fontSize=17;fontColor=#0000FF;fontStyle=1" parent="1" vertex="1">
                    <mxGeometry x="330" y="570" width="170" height="55" as="geometry"/>
                </mxCell>
                <mxCell id="83" value="&lt;span&gt;Selcets Digital Recipt&lt;/span&gt;" style="ellipse;whiteSpace=wrap;fillColor=#FFE45E;shadow=1;strokeColor=#FF6392;strokeWidth=4;html=1;labelBorderColor=none;labelBackgroundColor=none;align=center;fontSize=17;fontColor=#0000FF;fontStyle=1" parent="1" vertex="1">
                    <mxGeometry x="330" y="630" width="170" height="55" as="geometry"/>
                </mxCell>
                <mxCell id="53" value="&lt;span&gt;System Auto Timed Exit&lt;/span&gt;" style="ellipse;whiteSpace=wrap;fillColor=#FFE45E;shadow=1;strokeColor=#FF6392;strokeWidth=4;html=1;labelBorderColor=none;labelBackgroundColor=none;align=center;fontSize=17;fontColor=#0000FF;fontStyle=1" parent="1" vertex="1">
                    <mxGeometry x="330" y="690" width="170" height="55" as="geometry"/>
                </mxCell>
                <mxCell id="64" value="&lt;span&gt;Selects Purchase Ticket&amp;nbsp;&lt;/span&gt;" style="ellipse;whiteSpace=wrap;fillColor=#FFE45E;shadow=1;strokeColor=#FF6392;strokeWidth=4;html=1;labelBorderColor=none;labelBackgroundColor=none;align=center;fontSize=17;fontColor=#0000FF;fontStyle=1" parent="1" vertex="1">
                    <mxGeometry x="330" y="375" width="170" height="55" as="geometry"/>
                </mxCell>
                <mxCell id="58" value="&lt;span&gt;Selects Media Preview&lt;/span&gt;" style="ellipse;whiteSpace=wrap;fillColor=#FFE45E;shadow=1;strokeColor=#FF6392;strokeWidth=4;html=1;labelBorderColor=none;labelBackgroundColor=none;align=center;fontSize=17;fontColor=#0000FF;fontStyle=1" parent="1" vertex="1">
                    <mxGeometry x="330" y="320" width="170" height="50" as="geometry"/>
                </mxCell>
                <mxCell id="51" value="&lt;span&gt;Selects Event&lt;/span&gt;" style="ellipse;whiteSpace=wrap;fillColor=#FFE45E;shadow=1;strokeColor=#FF6392;strokeWidth=4;html=1;labelBorderColor=none;labelBackgroundColor=none;align=center;fontSize=17;fontColor=#0000FF;fontStyle=1" parent="1" vertex="1">
                    <mxGeometry x="330" y="260" width="170" height="50" as="geometry"/>
                </mxCell>
                <mxCell id="34" value="&lt;span&gt;Selects Event Type&lt;/span&gt;" style="ellipse;whiteSpace=wrap;fillColor=#FFE45E;shadow=1;strokeColor=#FF6392;strokeWidth=4;html=1;labelBorderColor=none;labelBackgroundColor=none;align=center;fontSize=17;fontColor=#0000FF;fontStyle=1" parent="1" vertex="1">
                    <mxGeometry x="330" y="197.5" width="170" height="55" as="geometry"/>
                </mxCell>
                <mxCell id="10" value="&lt;span&gt;Initially&amp;nbsp;&lt;/span&gt;&lt;br&gt;&lt;span&gt;Interfaces Kiosk&lt;/span&gt;" style="ellipse;whiteSpace=wrap;fillColor=#FFE45E;shadow=1;strokeColor=#FF6392;strokeWidth=4;html=1;labelBorderColor=none;labelBackgroundColor=none;align=center;fontSize=17;fontColor=#0000FF;fontStyle=1" parent="1" vertex="1">
                    <mxGeometry x="330" y="127.5" width="170" height="65" as="geometry"/>
                </mxCell>
                <mxCell id="16" value="&lt;span style=&quot;font-size: 30px ; font-weight: 700&quot;&gt;User&lt;/span&gt;" style="shape=actor;whiteSpace=wrap;shadow=1;glass=1;strokeWidth=4;fillColor=#FFE45E;strokeColor=#FF6392;labelBackgroundColor=none;labelBorderColor=none;html=1;align=center;fontColor=#0000FF;" parent="1" vertex="1">
                    <mxGeometry x="20" y="307.5" width="130" height="200" as="geometry"/>
                </mxCell>
                <mxCell id="45" value="&lt;span&gt;Internet Connection&lt;/span&gt;" style="ellipse;shape=cloud;whiteSpace=wrap;shadow=1;glass=0;labelBackgroundColor=none;fontSize=17;strokeColor=#FF6392;strokeWidth=4;fillColor=#FFE45E;html=1;labelBorderColor=none;align=center;fontColor=#0000FF;fontStyle=1" parent="1" vertex="1">
                    <mxGeometry x="960" y="333" width="210" height="185" as="geometry"/>
                </mxCell>
                <mxCell id="85" value="&lt;span&gt;Printer&lt;/span&gt;" style="whiteSpace=wrap;shadow=1;glass=0;fontSize=17;strokeWidth=4;labelBackgroundColor=none;fillColor=#FFE45E;strokeColor=#FF6392;html=1;labelBorderColor=none;align=center;fontColor=#0000FF;fontStyle=1" parent="1" vertex="1">
                    <mxGeometry x="720" y="720" width="120" height="50" as="geometry"/>
                </mxCell>
                <mxCell id="39" value="&lt;span&gt;Cash Exchanger&lt;/span&gt;" style="whiteSpace=wrap;shadow=1;glass=0;fontSize=17;strokeWidth=4;labelBackgroundColor=none;fillColor=#FFE45E;strokeColor=#FF6392;html=1;labelBorderColor=none;align=center;fontColor=#0000FF;fontStyle=1" parent="1" vertex="1">
                    <mxGeometry x="720" y="660" width="120" height="50" as="geometry"/>
                </mxCell>
                <mxCell id="43" value="&lt;span&gt;Bluetooth&lt;/span&gt;" style="whiteSpace=wrap;shadow=1;glass=0;fontSize=17;strokeWidth=4;labelBackgroundColor=none;fillColor=#FFE45E;strokeColor=#FF6392;html=1;labelBorderColor=none;align=center;fontColor=#0000FF;fontStyle=1" parent="1" vertex="1">
                    <mxGeometry x="720" y="600" width="120" height="50" as="geometry"/>
                </mxCell>
                <mxCell id="32" value="&lt;span&gt;Event Database&lt;/span&gt;" style="shape=cylinder3;whiteSpace=wrap;boundedLbl=1;backgroundOutline=1;size=15;shadow=1;glass=0;labelBackgroundColor=none;fontSize=17;strokeWidth=4;fillColor=#FFE45E;strokeColor=#FF6392;html=1;labelBorderColor=none;align=center;fontColor=#0000FF;fontStyle=1" parent="1" vertex="1">
                    <mxGeometry x="727.5" y="420" width="105" height="80" as="geometry"/>
                </mxCell>
                <mxCell id="30" value="&lt;span&gt;Media Database&lt;/span&gt;" style="shape=cylinder3;whiteSpace=wrap;boundedLbl=1;backgroundOutline=1;size=15;shadow=1;glass=0;labelBackgroundColor=none;fontSize=17;strokeWidth=4;fillColor=#FFE45E;strokeColor=#FF6392;html=1;labelBorderColor=none;align=center;fontColor=#0000FF;fontStyle=1" parent="1" vertex="1">
                    <mxGeometry x="727.5" y="325" width="105" height="85" as="geometry"/>
                </mxCell>
                <mxCell id="27" value="&lt;span&gt;Advertiser Database&lt;/span&gt;" style="shape=cylinder3;whiteSpace=wrap;boundedLbl=1;backgroundOutline=1;size=15;shadow=1;glass=0;labelBackgroundColor=none;fontSize=17;strokeWidth=4;fillColor=#FFE45E;strokeColor=#FF6392;html=1;labelBorderColor=none;align=center;fontColor=#0000FF;fontStyle=1" parent="1" vertex="1">
                    <mxGeometry x="727.5" y="230" width="105" height="85" as="geometry"/>
                </mxCell>
                <mxCell id="22" value="&lt;span&gt;Speakers&lt;/span&gt;" style="whiteSpace=wrap;shadow=1;glass=0;fontSize=17;strokeWidth=4;labelBackgroundColor=none;fillColor=#FFE45E;strokeColor=#FF6392;html=1;labelBorderColor=none;align=center;fontColor=#0000FF;fontStyle=1" parent="1" vertex="1">
                    <mxGeometry x="720" y="170" width="120" height="50" as="geometry"/>
                </mxCell>
                <mxCell id="19" value="&lt;span&gt;LCD Screen&lt;/span&gt;" style="whiteSpace=wrap;shadow=1;glass=0;fontSize=17;strokeWidth=4;labelBackgroundColor=none;fillColor=#FFE45E;strokeColor=#FF6392;html=1;labelBorderColor=none;align=center;fontColor=#0000FF;fontStyle=1" parent="1" vertex="1">
                    <mxGeometry x="720" y="110" width="120" height="50" as="geometry"/>
                </mxCell>
                <mxCell id="103" value="&lt;span&gt;Card Reader&lt;/span&gt;" style="whiteSpace=wrap;shadow=1;glass=0;fontSize=17;strokeWidth=4;labelBackgroundColor=none;fillColor=#FFE45E;strokeColor=#FF6392;html=1;labelBorderColor=none;align=center;fontColor=#0000FF;fontStyle=1" vertex="1" parent="1">
                    <mxGeometry x="700" y="522.5" width="80" height="50" as="geometry"/>
                </mxCell>
                <mxCell id="104" value="" style="edgeStyle=none;endArrow=none;verticalAlign=bottom;strokeColor=#FF6392;strokeWidth=4;exitX=1;exitY=0.5;exitDx=0;exitDy=0;shadow=1;html=1;labelBorderColor=none;labelBackgroundColor=none;align=center;fontSize=17;fontColor=#0000FF;fontStyle=1;entryX=0;entryY=0.5;entryDx=0;entryDy=0;entryPerimeter=0;" edge="1" parent="1" source="103" target="41">
                    <mxGeometry width="160" relative="1" as="geometry">
                        <mxPoint x="945" y="587.5" as="sourcePoint"/>
                        <mxPoint x="1015.75" y="464.76" as="targetPoint"/>
                        <Array as="points"/>
                    </mxGeometry>
                </mxCell>
                <mxCell id="41" value="&lt;span&gt;CreditCard Database&lt;/span&gt;" style="shape=cylinder3;whiteSpace=wrap;boundedLbl=1;backgroundOutline=1;size=15;shadow=1;glass=0;labelBackgroundColor=none;fontSize=17;strokeWidth=4;fillColor=#FFE45E;strokeColor=#FF6392;html=1;labelBorderColor=none;align=center;fontColor=#0000FF;fontStyle=1" parent="1" vertex="1">
                    <mxGeometry x="800" y="507.5" width="105" height="80" as="geometry"/>
                </mxCell>
            </root>
        </mxGraphModel>
    </diagram>
</mxfile>